<svg xmlns="http://www.w3.org/2000/svg">
  <symbol id="feat-1" viewBox="0 0 34.57 30">
    <path d="M32.15 13.78c1.78-5.37 1-7.76 1-7.86a.7.7 0 0 0-.34-.39 19 19 0 0 0-7-2.11 3.69 3.69 0 0 0-.47-1.29 4.73 4.73 0 0 0-3.51-2 4.81 4.81 0 0 0-3.93.78 4.23 4.23 0 0 0-.52.48 5.67 5.67 0 0 0-6.24-.25 5.19 5.19 0 0 0-2.86 3.6A12.42 12.42 0 0 0 .17 8.37a.7.7 0 0 0-.17.52c.3 3.48 2.37 7.17 3.07 8.33-1.31 2.07-2.15 5.14-.93 9.49a.71.71 0 0 0 .09.2c.12.18 2.12 3.09 7.4 3.09a22.86 22.86 0 0 0 8.92-2.15l.13.1a6.37 6.37 0 0 0 3.67.94c4.63 0 10.55-2.84 10.88-3a.7.7 0 0 0 .31-.3 12.41 12.41 0 0 0 .64-8.22 6.7 6.7 0 0 0-2.03-3.59zm-6.36-8.94a17.72 17.72 0 0 1 6 1.79c.11.66.27 2.66-.88 6.28a8.36 8.36 0 0 0-2.83-1 5.64 5.64 0 0 0-1.3-1.56 6 6 0 0 0 .24-2.75A4 4 0 0 0 25.77 5zm-.07 12.74a12.77 12.77 0 0 1-8.26 4.53 6.21 6.21 0 0 0 1.48-4.4 14.56 14.56 0 0 0 7.3-6 3.58 3.58 0 0 1 1 1.95 5 5 0 0 1-1.52 3.92zm0-9.76a4.83 4.83 0 0 1-.35 2.55C24 13.6 19.8 16.2 18.08 16.49a1.17 1.17 0 0 1-.95-.14 1.21 1.21 0 0 1-.24-.84c1.49-.09 3.11-1 4.84-2.8 2.63-2.7 1.58-4.9.4-6.33a3.28 3.28 0 0 1 2.49-.47c.55.23.9.87 1.06 1.91zM18.77 2a3.48 3.48 0 0 1 2.8-.53 3.43 3.43 0 0 1 2.53 1.37 2.64 2.64 0 0 1 .33 1.57 5.59 5.59 0 0 0-3.27.9L20.88 5a3.8 3.8 0 0 0-3.23-1.35A3.61 3.61 0 0 1 18.77 2zm-1.83 3.27a2.47 2.47 0 0 1 2.91.73l.36.37c1.59 1.6 2.72 3.1.52 5.37-1.78 1.83-3.32 2.61-4.58 2.33A3.09 3.09 0 0 1 14.5 13a3.41 3.41 0 0 0 1.89 0 5.21 5.21 0 0 0 2.87-2.48 2.71 2.71 0 0 0-.72-3.23 2.38 2.38 0 0 0-3.13 0 2.38 2.38 0 0 0-1.14 2 .71.71 0 0 0 .74.66.7.7 0 0 0 .66-.74c0-.2.21-.49.59-.78a1 1 0 0 1 1.36-.08A1.34 1.34 0 0 1 18 9.82a3.74 3.74 0 0 1-2 1.8 2.2 2.2 0 0 1-1.75-.27 2.81 2.81 0 0 1-1.55-2.27 3 3 0 0 1 1.63-2.46 12.35 12.35 0 0 1 2.59-1.35zm-7.35.09a3.78 3.78 0 0 1 2.2-3c2.57-1.32 4.24-.29 4.81.17a6.3 6.3 0 0 0-.51 1.52 15.11 15.11 0 0 0-2.51 1.35 6.21 6.21 0 0 0-1 .74 3.81 3.81 0 0 0-3 .17 4.57 4.57 0 0 1 0-.81.7.7 0 0 0 0-.18zM9.55 8a2.56 2.56 0 0 1 2.17-.66 3.56 3.56 0 0 0-.42 1.74 3.62 3.62 0 0 0 .29 1.32c.91 2.59 2.15 4.2 3.67 4.8a2.14 2.14 0 0 1-1.39.87c-.6 0-1.39-.56-2.35-1.67a15.74 15.74 0 0 1-2-2.83 4.38 4.38 0 0 1-.63-2.28A1.79 1.79 0 0 1 9.55 8zm.91 7.34c1.27 1.47 2.35 2.16 3.41 2.16a2.89 2.89 0 0 0 1.86-.78 2 2 0 0 0 .41.59 2.08 2.08 0 0 0 1.37.57 4.59 4.59 0 0 1-1.12 3.27 3.33 3.33 0 0 1-3 .44 8.83 8.83 0 0 1-2-1C8.69 18.8 8 17 8 15.76a4 4 0 0 1 .15-1.36 4 4 0 0 1 .62-1.24 19.43 19.43 0 0 0 1.68 2.22zm-9-6.29a11.38 11.38 0 0 1 6.7-2.9 5.78 5.78 0 0 0 .15 1.13 3.12 3.12 0 0 0-.85 1.92A5.31 5.31 0 0 0 8 11.81a5.38 5.38 0 0 0-1.15 1.9A10.23 10.23 0 0 0 4 16a20.43 20.43 0 0 1-2.57-6.92zm2 17.13c-1.09-4-.27-6.74.93-8.51a.69.69 0 0 0 .12-.16 8.47 8.47 0 0 1 2.06-2v.32c.09 1.53.85 3.8 4 5.93a10.28 10.28 0 0 0 2.19 1.14l.16.06h.05a10.5 10.5 0 0 0 2.52.55 7.09 7.09 0 0 0 1.9 3.3c-9.86 4.03-13.39.05-13.93-.59zm28.94-1.45c-2.84 1.34-10.07 4-12.91 2.06a6.38 6.38 0 0 1-2.55-3.23 14 14 0 0 0 9.84-5.06c1.5-1.73 2.13-3.42 1.88-5a5.49 5.49 0 0 1 4.16 4.22 11.63 11.63 0 0 1-.42 7.01z"/>
  </symbol>
  <symbol id="feat-2" viewBox="0 0 25.53 32">
    <path d="M19 6.29a6.25 6.25 0 1 0-12.49 0h-4.6L0 27.81A4.46 4.46 0 0 0 4.7 32h16.13a4.45 4.45 0 0 0 4.7-4.15L23.61 6.29zM12.76 1.5a4.77 4.77 0 0 1 4.74 4.75H8a4.77 4.77 0 0 1 4.76-4.75zm8 29H4.65c-1.73 0-3.19-1.19-3.19-2.6L3.28 7.79h3.24v2.83H8V7.79h9.44v2.83H19V7.79h3.2L24 27.9c0 1.46-1.48 2.6-3.21 2.6zM11.17 19a2.71 2.71 0 1 0-3.83 0 2.65 2.65 0 0 0 1.91.77 2.77 2.77 0 0 0 1.92-.77zm-2.78-1.13a1.19 1.19 0 1 1 1.69 0 1.21 1.21 0 0 1-1.69 0zm7.89 2.64a2.69 2.69 0 0 0-1.91.77 2.72 2.72 0 0 0 0 3.83 2.65 2.65 0 0 0 1.91.77 2.77 2.77 0 0 0 1.91-.77 2.72 2.72 0 0 0 0-3.83 2.69 2.69 0 0 0-1.92-.77zm.87 3.56a1.19 1.19 0 1 1 0-1.69 1.21 1.21 0 0 1-.01 1.69zM18 16l-9.34 9.34-1.09-1.09 9.34-9.34z"/>
  </symbol>
</svg>